<svg viewBox="0 0 32 32" width="64" height="64" xmlns="http://www.w3.org/2000/svg">
  <rect x="6" y="10" width="18" height="12" fill="#ff9900" stroke="#000000" stroke-width="1" />
  <rect x="8" y="10" width="2" height="6" fill="#000000" />
  <rect x="14" y="10" width="2" height="8" fill="#000000" />
  <rect x="20" y="10" width="2" height="6" fill="#000000" />
  <rect x="22" y="14" width="6" height="6" fill="#ff9900" stroke="#000000" stroke-width="1" />
  <rect x="22" y="12" width="2" height="2" fill="#000000" />
  <rect x="26" y="12" width="2" height="2" fill="#000000" />
  <rect x="24" y="16" width="1" height="1" fill="#000000" />
  <rect x="26" y="16" width="1" height="1" fill="#000000" />
  <rect x="24" y="18" width="3" height="2" fill="#ffffff" />
  <rect x="25" y="19" width="1" height="1" fill="#000000" />
  <rect x="8" y="22" width="2" height="3" fill="#000000" />
  <rect x="12" y="22" width="2" height="3" fill="#000000" />
  <rect x="18" y="22" width="2" height="3" fill="#000000" />
  <rect x="22" y="22" width="2" height="3" fill="#000000" />
  <rect x="2" y="12" width="4" height="2" fill="#ff9900" stroke="#000000" stroke-width="1" />
</svg>