<svg viewBox="0 0 640 400" width="640" height="400" xmlns="http://www.w3.org/2000/svg" shape-rendering="crispEdges">
  <rect width="640" height="400" fill="#05050a" />

  <g fill="#ffffff">
    <rect x="75" y="45" width="3" height="3" />
    <rect x="210" y="120" width="3" height="3" />
    <rect x="520" y="80" width="3" height="3" />
    <rect x="460" y="230" width="3" height="3" />
    <rect x="130" y="280" width="3" height="3" />
    <rect x="380" y="150" width="3" height="3" />
  </g>

  <g fill="#ffffff" opacity="0.7">
    <rect x="40" y="160" width="2" height="2" />
    <rect x="180" y="60" width="2" height="2" />
    <rect x="290" y="90" width="2" height="2" />
    <rect x="340" y="260" width="2" height="2" />
    <rect x="580" y="140" width="2" height="2" />
    <rect x="600" y="40" width="2" height="2" />
    <rect x="250" y="220" width="2" height="2" />
    <rect x="490" y="110" width="2" height="2" />
    <rect x="90" y="200" width="2" height="2" />
    <rect x="420" y="300" width="2" height="2" />
  </g>

  <g fill="#ffffff" opacity="0.3">
    <rect x="120" y="30" width="1" height="1" />
    <rect x="310" y="40" width="1" height="1" />
    <rect x="500" y="25" width="1" height="1" />
    <rect x="150" y="100" width="1" height="1" />
    <rect x="220" y="180" width="1" height="1" />
    <rect x="350" y="110" width="1" height="1" />
    <rect x="410" y="75" width="1" height="1" />
    <rect x="560" y="210" width="1" height="1" />
    <rect x="620" y="250" width="1" height="1" />
    <rect x="60" y="250" width="1" height="1" />
    <rect x="170" y="260" width="1" height="1" />
    <rect x="280" y="290" width="1" height="1" />
    <rect x="510" y="270" width="1" height="1" />
  </g>

  <rect x="400" y="30" width="120" height="80" fill="#00eaff" opacity="0.03" filter="blur(20px)" />
  <rect x="100" y="150" width="150" height="100" fill="#ff003c" opacity="0.02" filter="blur(30px)" />
</svg>
