<svg viewBox="0 0 640 400" width="640" height="400" xmlns="http://www.w3.org/2000/svg" shape-rendering="crispEdges">
  <!-- Ground Base -->
  <rect width="640" height="400" fill="#4fa153" />

  <!-- Dark Green Grass Tufts (Shadows/Depth) -->
  <g fill="#317235">
    <!-- Tuft 1 -->
    <rect x="40" y="60" width="2" height="8" />
    <rect x="38" y="62" width="2" height="6" />
    <rect x="42" y="64" width="2" height="4" />

    <!-- Tuft 2 -->
    <rect x="180" y="140" width="2" height="8" />
    <rect x="178" y="142" width="2" height="6" />
    <rect x="182" y="144" width="2" height="4" />

    <!-- Tuft 3 -->
    <rect x="520" y="90" width="2" height="8" />
    <rect x="518" y="92" width="2" height="6" />
    <rect x="522" y="94" width="2" height="4" />

    <!-- Tuft 4 -->
    <rect x="310" y="220" width="2" height="8" />
    <rect x="308" y="222" width="2" height="6" />
    <rect x="312" y="224" width="2" height="4" />

    <!-- Tuft 5 -->
    <rect x="120" y="300" width="2" height="8" />
    <rect x="118" y="302" width="2" height="6" />
    <rect x="122" y="304" width="2" height="4" />

    <!-- Tuft 6 -->
    <rect x="480" y="270" width="2" height="8" />
    <rect x="478" y="272" width="2" height="6" />
    <rect x="482" y="274" width="2" height="4" />

    <!-- Tuft 7 -->
    <rect x="580" y="180" width="2" height="8" />
    <rect x="578" y="182" width="2" height="6" />
    <rect x="582" y="184" width="2" height="4" />

    <!-- Tuft 8 -->
    <rect x="230" y="50" width="2" height="8" />
    <rect x="228" y="52" width="2" height="6" />
    <rect x="232" y="54" width="2" height="4" />
  </g>

  <!-- Light Green Grass Tufts (Highlights) -->
  <g fill="#77c87c">
    <!-- Tuft 9 -->
    <rect x="90" y="110" width="2" height="6" />
    <rect x="88" y="112" width="2" height="4" />
    <rect x="92" y="113" width="2" height="3" />

    <!-- Tuft 10 -->
    <rect x="270" y="80" width="2" height="6" />
    <rect x="268" y="82" width="2" height="4" />
    <rect x="272" y="83" width="2" height="3" />

    <!-- Tuft 11 -->
    <rect x="420" y="160" width="2" height="6" />
    <rect x="418" y="162" width="2" height="4" />
    <rect x="422" y="163" width="2" height="3" />

    <!-- Tuft 12 -->
    <rect x="600" y="70" width="2" height="6" />
    <rect x="598" y="72" width="2" height="4" />
    <rect x="602" y="73" width="2" height="3" />

    <!-- Tuft 13 -->
    <rect x="50" y="240" width="2" height="6" />
    <rect x="48" y="242" width="2" height="4" />
    <rect x="52" y="243" width="2" height="3" />

    <!-- Tuft 14 -->
    <rect x="200" y="320" width="2" height="6" />
    <rect x="198" y="322" width="2" height="4" />
    <rect x="202" y="323" width="2" height="3" />

    <!-- Tuft 15 -->
    <rect x="380" y="280" width="2" height="6" />
    <rect x="378" y="282" width="2" height="4" />
    <rect x="382" y="283" width="2" height="3" />

    <!-- Tuft 16 -->
    <rect x="560" y="310" width="2" height="6" />
    <rect x="558" y="312" width="2" height="4" />
    <rect x="562" y="313" width="2" height="3" />
  </g>
</svg>
