<svg viewBox="0 0 32 32" width="64" height="64" xmlns="http://www.w3.org/2000/svg" shape-rendering="crispEdges">
  <rect x="8" y="27" width="16" height="2" fill="#000000" opacity="0.2" />

  <g class="cyber-sword">
    <rect x="5" y="4" width="2" height="13" fill="#00eaff" /> <rect x="4" y="3" width="4" height="2" fill="#ffffff" opacity="0.8" /> <rect x="4" y="17" width="4" height="2" fill="#ff003c" /> <rect x="5" y="19" width="2" height="2" fill="#333333" /> </g>

  <rect x="11" y="22" width="3" height="5" fill="#555555" stroke="#000000" stroke-width="1" />
  <rect x="10" y="25" width="4" height="2" fill="#333333" />
  <rect x="17" y="22" width="3" height="5" fill="#777777" stroke="#000000" stroke-width="1" />
  <rect x="17" y="25" width="4" height="2" fill="#444444" />

  <rect x="10" y="13" width="11" height="10" fill="#0000aa" stroke="#000000" stroke-width="1" />
  <rect x="10" y="13" width="3" height="10" fill="#000088" /> <rect x="14" y="15" width="3" height="2" fill="#ff003c" /> <rect x="11" y="21" width="9" height="2" fill="#333333" /> <rect x="8" y="13" width="3" height="3" fill="#777777" stroke="#000000" stroke-width="1" />
  <rect x="20" y="13" width="3" height="3" fill="#999999" stroke="#000000" stroke-width="1" />

  <rect x="12" y="7" width="8" height="7" fill="#ffdbac" stroke="#000000" stroke-width="1" /> <rect x="12" y="6" width="8" height="3" fill="#4a3728" /> <rect x="11" y="7" width="2" height="4" fill="#4a3728" /> <rect x="14" y="9" width="6" height="2" fill="#00eaff" /> <rect x="15" y="9" width="1" height="1" fill="#ffffff" /> <g class="cyber-shield">
    <rect x="17" y="14" width="6" height="8" fill="#777777" stroke="#000000" stroke-width="1" />
    <rect x="18" y="15" width="4" height="6" fill="#999999" /> <rect x="18" y="18" width="4" height="1" fill="#ff003c" /> <rect x="19" y="14" width="1" height="8" fill="#ffffff" opacity="0.3" /> </g>
</svg>
